<?xml version="1.0" encoding="UTF-8" standalone="no"?>
<!-- Created with Inkscape (http://www.inkscape.org/) -->

<svg
   version="1.1"
   id="svg10940"
   width="434.73328"
   height="333.14673"
   viewBox="0 0 434.73328 333.14673"
   sodipodi:docname="income_icons.eps"
   xmlns:inkscape="http://www.inkscape.org/namespaces/inkscape"
   xmlns:sodipodi="http://sodipodi.sourceforge.net/DTD/sodipodi-0.dtd"
   xmlns="http://www.w3.org/2000/svg"
   xmlns:svg="http://www.w3.org/2000/svg">
  <defs
     id="defs10944" />
  <sodipodi:namedview
     id="namedview10942"
     pagecolor="#ffffff"
     bordercolor="#000000"
     borderopacity="0.25"
     inkscape:showpageshadow="2"
     inkscape:pageopacity="0.0"
     inkscape:pagecheckerboard="0"
     inkscape:deskcolor="#d1d1d1"
     showgrid="false" />
  <g
     id="g10948"
     inkscape:groupmode="layer"
     inkscape:label="Page 1"
     transform="matrix(1.3333333,0,0,-1.3333333,-1422.3467,1246.72)">
    <path
       d="m 1356.82,806.69 c -0.9,-0.5 -1.89,-0.79 -2.89,-0.79 -2.08,0 -4.07,1.09 -5.17,2.98 -6.36,11.23 -15.9,23.16 -26.84,33.6 -2.39,2.29 -2.48,6.06 -0.2,8.35 2.29,2.49 6.07,2.49 8.45,0.2 11.73,-11.13 22.07,-24.06 28.93,-36.18 1.59,-2.89 0.6,-6.57 -2.28,-8.16 z m -24.46,73.97 c 7.85,16.41 16.6,36.19 16.6,43.84 0,9.75 -12.13,14.82 -19.48,4.48 -9.65,-13.42 -13.72,6.06 -24.86,6.06 -10.93,0 -16.7,-18.09 -25.25,-5.96 -7.75,11.03 -21.08,4.37 -21.08,-4.28 0,-10.44 8.35,-29.33 16.21,-44.64 -16.41,-12.82 -35.1,-32.51 -47.03,-53.88 42.06,-0.1 76.26,-34.4 76.26,-76.56 0,-15.21 -4.48,-29.32 -12.13,-41.15 3.97,-0.4 8.05,-0.6 12.13,-0.6 49.21,0 89.08,24.55 89.08,76.35 0,35.89 -33.51,75.46 -60.45,96.34"
       style="fill:#203a72;fill-opacity:1;fill-rule:nonzero;stroke:none;stroke-width:0.1"
       id="path11354" />
    <path
       d="m 1133.66,738.83 c -25.5,0 -51.97,5.49 -66.9,15.82 v -23.57 c 0,-9.68 25.42,-23.08 66.9,-23.08 10.33,0 19.69,0.81 27.85,2.26 -5.33,8.88 -8.88,18.81 -10.33,29.46 -5.81,-0.57 -11.7,-0.89 -17.52,-0.89"
       style="fill:#203a72;fill-opacity:1;fill-rule:nonzero;stroke:none;stroke-width:0.1"
       id="path11356" />
    <path
       d="m 1133.66,750.94 c 5.97,0 11.62,0.24 16.87,0.8 0.32,11.38 3.07,22.12 7.83,31.8 -8.07,-1.21 -16.46,-1.77 -24.7,-1.77 -25.5,0 -51.97,5.49 -66.9,15.81 v -23.56 c 0,-9.69 25.42,-23.08 66.9,-23.08"
       style="fill:#203a72;fill-opacity:1;fill-rule:nonzero;stroke:none;stroke-width:0.1"
       id="path11358" />
    <path
       d="m 1133.66,793.87 c 12.76,0 23.89,1.3 33.33,3.31 8.64,10.98 20.18,19.53 33.58,24.53 v 18.81 c -14.93,-10.33 -41.4,-15.82 -66.91,-15.82 -25.5,0 -51.97,5.49 -66.9,15.82 v -23.57 c 0,-9.68 25.42,-23.08 66.9,-23.08"
       style="fill:#203a72;fill-opacity:1;fill-rule:nonzero;stroke:none;stroke-width:0.1"
       id="path11360" />
    <path
       d="m 1133.69,836.84 c 41.48,0 66.9,13.39 66.9,23.08 v 23.57 c -14.93,-10.34 -41.4,-15.82 -66.9,-15.82 -25.51,0 -51.98,5.48 -66.91,15.82 v -23.57 c 0,-9.69 25.42,-23.08 66.91,-23.08"
       style="fill:#203a72;fill-opacity:1;fill-rule:nonzero;stroke:none;stroke-width:0.1"
       id="path11362" />
    <path
       d="m 1133.69,879.77 c 41.48,0 66.9,13.4 66.9,23.09 0,9.6 -25.42,23.08 -66.9,23.08 -41.49,0 -66.91,-13.48 -66.91,-23.08 0,-9.69 25.42,-23.09 66.91,-23.09"
       style="fill:#203a72;fill-opacity:1;fill-rule:nonzero;stroke:none;stroke-width:0.1"
       id="path11364" />
    <path
       d="m 1232.76,717.72 v -8.12 c 0,-0.87 -0.7,-1.57 -1.57,-1.57 h -7.91 c -0.86,0 -1.56,0.7 -1.56,1.57 v 7.92 c -8.07,0.52 -14.6,6.78 -15.4,14.76 -0.09,0.9 0.68,1.66 1.58,1.66 h 8 c 0.71,0 1.36,-0.46 1.51,-1.15 0.53,-2.47 2.73,-4.33 5.36,-4.33 h 7 c 4.13,0 7.9,2.96 8.32,7.06 0.48,4.73 -3.23,8.73 -7.85,8.73 h -5.15 c -9.89,0 -18.73,7.21 -19.7,17.04 -1.01,10.42 6.47,19.33 16.33,20.65 v 8.01 c 0,0.86 0.7,1.57 1.56,1.57 h 7.91 c 0.87,0 1.57,-0.71 1.57,-1.57 v -7.92 c 8.06,-0.52 14.59,-6.78 15.4,-14.77 0.08,-0.9 -0.68,-1.66 -1.58,-1.66 h -8.01 c -0.7,0 -1.35,0.46 -1.5,1.15 -0.53,2.48 -2.73,4.34 -5.36,4.34 h -7 c -4.13,0 -7.9,-2.97 -8.33,-7.07 -0.48,-4.73 3.23,-8.73 7.86,-8.73 h 6 c 11.06,0 19.95,-9.54 18.84,-20.83 -0.85,-8.7 -7.87,-15.32 -16.32,-16.74 z m -5.52,96.64 c -35.62,0 -64.6,-28.98 -64.6,-64.59 0,-35.61 28.98,-64.59 64.6,-64.59 35.61,0 64.59,28.98 64.59,64.59 0,35.61 -28.98,64.59 -64.59,64.59"
       style="fill:#14a0de;fill-opacity:1;fill-rule:nonzero;stroke:none;stroke-width:0.1"
       id="path11366" />
  </g>
</svg>
