<?xml version="1.0" encoding="UTF-8" standalone="no"?>
<!-- Created with Inkscape (http://www.inkscape.org/) -->

<svg
   version="1.1"
   id="svg48"
   width="504.66913"
   height="424.17667"
   viewBox="0 0 504.66913 424.17667"
   sodipodi:docname="savings.svg"
   inkscape:version="1.2.1 (9c6d41e, 2022-07-14)"
   xmlns:inkscape="http://www.inkscape.org/namespaces/inkscape"
   xmlns:sodipodi="http://sodipodi.sourceforge.net/DTD/sodipodi-0.dtd"
   xmlns="http://www.w3.org/2000/svg"
   xmlns:svg="http://www.w3.org/2000/svg">
  <defs
     id="defs52" />
  <sodipodi:namedview
     id="namedview50"
     pagecolor="#ffffff"
     bordercolor="#000000"
     borderopacity="0.25"
     inkscape:showpageshadow="2"
     inkscape:pageopacity="0.0"
     inkscape:pagecheckerboard="0"
     inkscape:deskcolor="#d1d1d1"
     showgrid="false"
     inkscape:zoom="0.41714538"
     inkscape:cx="112.67055"
     inkscape:cy="225.3411"
     inkscape:window-width="1309"
     inkscape:window-height="456"
     inkscape:window-x="0"
     inkscape:window-y="38"
     inkscape:window-maximized="0"
     inkscape:current-layer="g56" />
  <g
     id="g56"
     inkscape:groupmode="layer"
     inkscape:label="Page 1"
     transform="matrix(1.3333333,0,0,-1.3333333,-1638.0133,1502.8166)">
    <path
       d="m 1600.71,1024.63 -48.81,35.23 v 46.17 c 0,4.05 -3.29,7.34 -7.34,7.34 h -22.59 c -4.05,0 -7.34,-3.29 -7.34,-7.34 v -19.28 l -51.93,37.49 c -5.31,3.83 -12.48,3.83 -17.8,0 l -138,-99.61 c -7.98,-5.76 -8.47,-17.46 -1,-23.87 5.33,-4.57 13.1,-4.89 18.79,-0.78 l 129.11,93.19 129.11,-93.19 c 5.69,-4.11 13.46,-3.79 18.79,0.78 7.47,6.41 6.99,18.11 -0.99,23.87"
       style="fill:#203a72;fill-opacity:1;fill-rule:nonzero;stroke:none;stroke-width:0.1"
       id="path390" />
    <path
       d="m 1525.98,961.96 -66.48,-66.48 c -3.56,-3.57 -9.71,-3.57 -13.27,0 -1.84,1.84 -2.83,4.18 -2.83,6.76 0,2.45 0.99,4.79 2.83,6.63 l 66.36,66.36 c 1.84,1.84 4.3,2.7 6.76,2.7 2.33,0 4.79,-0.86 6.63,-2.7 1.72,-1.72 2.7,-4.18 2.7,-6.64 0,-2.46 -0.98,-4.91 -2.7,-6.63 z m -12.04,-69.06 c -8.11,0 -14.75,6.63 -14.75,14.74 0,8.11 6.64,14.75 14.75,14.75 8.11,0 14.74,-6.64 14.74,-14.75 0,-8.11 -6.63,-14.74 -14.74,-14.74 z m -55.67,85.15 c 8.11,0 14.75,-6.63 14.75,-14.74 0,-8.23 -6.64,-14.75 -14.75,-14.75 -8.11,0 -14.74,6.52 -14.74,14.75 0,8.11 6.63,14.74 14.74,14.74 z m -4.42,92.17 -109.24,-78.9 c 41.29,-13.51 71.27,-52.47 71.27,-98.18 0,-9.7 -1.35,-19.04 -3.81,-27.89 h 132.1 c 10.81,0 19.66,8.85 19.66,19.66 v 105.8 l -109.98,79.51"
       style="fill:#203a72;fill-opacity:1;fill-rule:nonzero;stroke:none;stroke-width:0.1"
       id="path392" />
    <path
       d="m 1308.61,901.85 h 8.01 c 16.58,0 29.94,-14.3 28.29,-31.19 -1.26,-12.73 -11.31,-22.47 -23.57,-24.91 v -11.39 c 0,-1.26 -1.02,-2.28 -2.28,-2.28 h -12.81 c -1.26,0 -2.36,1.02 -2.36,2.28 v 11.23 c -12.56,2.12 -22.38,12.5 -23.49,25.38 -0.15,1.34 1.03,2.52 2.36,2.52 h 12.81 c 1.1,0 2.12,-0.71 2.27,-1.81 0.87,-5.19 5.35,-9.12 10.77,-9.12 h 7.39 c 5.5,0 10.52,3.7 11.39,9.04 1.18,6.84 -4.09,12.81 -10.77,12.81 h -6.67 c -14.85,0 -28.13,10.76 -29.55,25.53 -1.49,15.25 9.19,28.37 23.49,30.73 v 11.15 c 0,1.34 1.1,2.36 2.36,2.36 h 12.81 c 1.26,0 2.28,-1.02 2.28,-2.36 v -11.15 c 12.65,-2.12 22.47,-12.5 23.57,-25.46 0.08,-1.33 -1.02,-2.44 -2.35,-2.44 h -12.9 c -1.01,0 -2.03,0.71 -2.19,1.73 -0.87,5.19 -5.42,9.2 -10.85,9.2 h -7.38 c -5.42,0 -10.45,-3.69 -11.4,-9.12 -1.1,-6.84 4.17,-12.73 10.77,-12.73 z m 4.05,75.43 c -46.48,0 -84.15,-37.68 -84.15,-84.15 0,-46.47 37.67,-84.15 84.15,-84.15 46.47,0 84.14,37.68 84.14,84.15 0,46.47 -37.67,84.15 -84.14,84.15"
       style="fill:#14a0de;fill-opacity:1;fill-rule:nonzero;stroke:none;stroke-width:0.1"
       id="path394" />
  </g>
</svg>
